<svg xmlns="http://www.w3.org/2000/svg" viewBox="0 0 667 202"><defs><clipPath id="clip-path"><path d="M667 40v122c0 6.45 0 11.79-.24 16.26a.21.21 0 0 1 0 .08c-.45 8.58-1.77 13.95-5.62 17.8C655.28 202 645.86 202 627 202H40c-18.86 0-28.28 0-34.14-5.86-3.32-3.32-4.76-7.79-5.39-14.48C0 176.56 0 170.16 0 162V40c0-5 0-9.25.11-13C.4 16.44 1.54 10.18 5.86 5.86 11.72 0 21.14 0 40 0h587c18.86 0 28.28 0 34.14 5.86 2.61 2.61 4.06 5.92 4.86 10.46 1 5.68 1 13.22 1 23.68Z" style="fill:none"/></clipPath><style>.cls-3{fill:#43d8ef}</style></defs><g id="Слой_2" data-name="Слой 2"><g style="clip-path:url(#clip-path)" id="Слой_1-2" data-name="Слой 1"><path class="cls-3" d="M40 0h127.22C122.49 6 65.7 14.67.11 27 .4 16.44 1.54 10.18 5.86 5.86 11.72 0 21.14 0 40 0Zm626 16.32V46a339 339 0 0 0-84.56-46H627c18.86 0 28.28 0 34.14 5.86 2.61 2.61 4.06 5.92 4.86 10.46Z"/><path d="M157.46 0q-3.46 1.77-6.87 3.72C125.68 17.9 85.33 49.05 27.56 48A148.31 148.31 0 0 1 0 45v-5C0 21.14 0 11.72 5.86 5.86S21.14 0 40 0ZM73.81 202H40c-18.86 0-28.28 0-34.14-5.86-3.32-3.32-4.76-7.79-5.39-14.48C28.43 186 51.55 193.65 73.81 202Z" style="fill:#4672cd"/><path class="cls-3" d="M278.34 202h-86.15c29.52-.86 58.27-.48 86.15 0ZM667 147.84l-.24 30.42a.21.21 0 0 1 0 .08c-.45 8.58-1.77 13.95-5.62 17.8C655.28 202 645.86 202 627 202H379.74c35.9-1.53 69.74-5.72 101.21-15.75 14.93-4.81 30.1-9.11 45-13.74 57.59-18 82-27 117.08-26.49a185 185 0 0 1 23.97 1.82Z"/></g></g></svg>