<svg width="105" height="53" fill="none" xmlns="http://www.w3.org/2000/svg"><path fill-rule="evenodd" clip-rule="evenodd" d="M76.998 22.428c6.747.897 10.918 2.081 10.918 3.409 0 2.601-15.932 4.665-35.624 4.665-19.691 0-35.66-2.064-35.66-4.665 0-.844 1.696-1.633 4.665-2.324v.17c-.045 1.337 4.925 1.212 6.926 1.176 6.163 1.023 12.613 1.75 18.785 2.763 0 3.642 12.308 2.987 12.308-.063a28.773 28.773 0 0 0 9.958-2.323c1.059-.754 8.711 1.256 8.711-1.516a1.49 1.49 0 0 0-.987-1.292Z" fill="#43D8EF"/><path fill-rule="evenodd" clip-rule="evenodd" d="M48.587 3.93C55.378-2.1 62.7-1.022 67.911 6.002c2.485 3.355 4.261 7.733 4 14.937-.403.717 6.047.511 6.047 2.78 0 2.773-7.652.763-8.71 1.517a28.77 28.77 0 0 1-9.958 2.323c0 3.05-12.309 3.705-12.309.063-6.172-1.014-12.622-1.74-18.785-2.763-2 0-6.97.161-6.926-1.175.063-1.57 4.163-2.306 4.378-2.898 2.1-9.805 10.909-14.506 22.94-16.856Z" fill="#78B4BA"/><path fill-rule="evenodd" clip-rule="evenodd" d="M59.209 25.72c3.041-.26 6.405-.376 9.204-1.686a10.183 10.183 0 0 1 2.647-1.373c.322 0-.78 1.113-.476 1.122 3.194.116 4.324.744 5.607-.135 1.516-1.032-5.481-.502-5.724-2.458a1.559 1.559 0 0 1 0-.457c.17-5.087-.636-9.716-3.722-13.87-1.965-2.646-4.674-4.952-8.074-5.382-3.66-.43-10.227 2.646-11.34 6.44l-.682 6.433c0 .17-.233-6.36-.394-6.342-8.074.897-16.893 2.951-19.154 12.81 0 1.705-3.83 1.05-3.938 2.638-.054.664 29.156 2.476 25.73-3.095l10.316 5.356Z" fill="#fff"/><path fill-rule="evenodd" clip-rule="evenodd" d="M52.785 29.013c3.105 0 5.625-1.068 5.625-2.378s-2.52-2.413-5.624-2.413c-3.104 0-5.616 1.068-5.616 2.386 0 1.32 2.512 2.378 5.615 2.378" fill="#fff"/><path fill-rule="evenodd" clip-rule="evenodd" d="M55.235 10.712a.376.376 0 0 0 .224-.494.386.386 0 0 0-.197-.215.377.377 0 0 0-.297 0 .386.386 0 0 0-.215.197.422.422 0 0 0 0 .296.386.386 0 0 0 .198.216.42.42 0 0 0 .296 0h-.01Zm3.077-1.157a.386.386 0 0 0-.148-.74.373.373 0 0 0-.148.03.386.386 0 0 0-.216.198.377.377 0 0 0 0 .296.386.386 0 0 0 .198.216c.1.04.213.04.314 0Zm-7.42-1.92c.18.161.27-.574.808-.897.538-.323 1.328-.17 1.211-.44-.117-.27-1.058-.359-1.57 0-.332.287-.78 1.05-.448 1.337Zm8.73 1.794 1.794-.53c.043-.301.012-.61-.09-.896l-1.005.466a.403.403 0 0 1 0 .206.358.358 0 0 1-.215.198.395.395 0 0 1-.287 0 .44.44 0 0 1-.207-.216.377.377 0 0 1 0-.296.36.36 0 0 1 .216-.197.395.395 0 0 1 .287 0l.08.054 1.023-.476a1.838 1.838 0 0 0-.79-.735l-1.282.897a.394.394 0 0 1-.242.448.35.35 0 0 1-.287 0 .359.359 0 0 1-.207-.206.421.421 0 0 1 0-.296.386.386 0 0 1 .216-.197.377.377 0 0 1 .296 0l1.184-.745a2.691 2.691 0 0 0-1.723.063l-.717.269c0 .422-.53.897-1.274 1.256l.457 1.211a1.855 1.855 0 0 0 1.122 1.059 2.691 2.691 0 0 0 3.203-1.194c.068-.122.122-.251.161-.385l-1.561.457a.431.431 0 0 1 0 .216.385.385 0 0 1-.215.197.376.376 0 0 1-.296 0 .358.358 0 0 1-.198-.215.385.385 0 0 1 .52-.485l.036.072Zm-8.074 1.085-1.795.422a.153.153 0 0 1-.183-.166.142.142 0 0 1 .058-.097.144.144 0 0 1 .054-.024l1.946-.449a2.16 2.16 0 0 1 .189-.448 3.032 3.032 0 0 1 1.579-1.328l.735-.269c0-.457.601-1.014 1.436-1.319a1.974 1.974 0 0 1 1.946.054l.727-.26a2.978 2.978 0 0 1 2.063 0l.153.063 1.695-1.157a.144.144 0 0 1 .198 0 .153.153 0 0 1 0 .206l-1.597 1.067c.324.199.593.477.78.808l2.162-.987a.134.134 0 0 1 .189.063.152.152 0 0 1-.072.197l-2.108.987c.108.286.151.592.125.897l1.795-.53a.134.134 0 0 1 .179.1.143.143 0 0 1-.099.179l-1.955.565a2.406 2.406 0 0 1-.252.682 3.104 3.104 0 0 1-3.65 1.363 2.376 2.376 0 0 1-.898-.574 2.42 2.42 0 0 1-.305 1.014 2.96 2.96 0 0 1-1.579 1.328c-.665.25-1.398.25-2.063 0a1.946 1.946 0 0 1-.314-.135l-1.794 1.059a.152.152 0 0 1-.207-.045.161.161 0 0 1 .054-.206l1.624-.978a2.197 2.197 0 0 1-.69-.799l-2.127.897a.135.135 0 0 1-.188-.071.144.144 0 0 1 .071-.198l2.136-.897a2.126 2.126 0 0 1-.018-1.014Zm2.054-.484-1.66.395a1.713 1.713 0 0 0 0 .995l1.032-.44a.26.26 0 0 1 0-.143.386.386 0 0 1 .502-.206.358.358 0 0 1 .198.215.358.358 0 0 1-.216.485.323.323 0 0 1-.287 0 .252.252 0 0 1-.125-.09l-1.014.422c.16.306.402.56.7.735l1.408-.843a.403.403 0 0 1 0-.206.358.358 0 0 1 .215-.198.394.394 0 0 1 .288 0c.091.043.162.12.197.216a.34.34 0 0 1 0 .296.358.358 0 0 1-.215.197.395.395 0 0 1-.287 0l-.081-.054-1.175.754h.053a2.69 2.69 0 0 0 3.194-1.193 1.847 1.847 0 0 0 .188-1.498l-.448-1.212a1.848 1.848 0 0 1-1.794-.125l-.727.278a2.61 2.61 0 0 0-1.39 1.157l-.081.162 1.48-.341a.18.18 0 0 1 0-.099.404.404 0 0 1 .363-.237.377.377 0 0 1 .268.114.37.37 0 0 1 .078.123.42.42 0 0 1 0 .296.385.385 0 0 1-.215.197.377.377 0 0 1-.297 0 .413.413 0 0 1-.152-.152Zm5.92-5.607c0 .242-.582-.26-1.165-.117-.584.144-1.113.736-1.203.449-.09-.287.566-.95 1.158-1.014.44-.045 1.274.251 1.21.682Z" fill="#2B457A"/><path d="M104.584 40.765v1.677-1.677Zm-6.53-7.23h2.063v7.005h-2.064v-7.006Zm-8.541 6.126v-6.127h6.728v1.66h-4.683v1.928h4.136v1.606h-4.136v1.247l-2.045-.314Zm-8.45-1.417-2.028-4.71h2.225l2.17 5.096h-.233a25.08 25.08 0 0 0-2.135-.386Zm7.75-4.71-2.422 5.598-1.902-.323-.466 1.095 2.745-6.37h2.045Zm-16.847 3.992 1.794-3.992h2.036l1.902 4.27c-.69-.08-1.381-.134-2.081-.18l.565 1.346-1.417-3.408-.826 1.982c-.664-.018-1.274-.018-1.973-.018Zm-10.38.996v-4.988h3.903a4.995 4.995 0 0 1 2.054.395 2.933 2.933 0 0 1 1.794 2.844c.003.301-.03.603-.099.897a81.7 81.7 0 0 0-2.386.197 1.605 1.605 0 0 0-.08-2.216 2.171 2.171 0 0 0-1.418-.395h-1.66v2.96l-2.108.306Zm-6.02-3.301h-2.852v-1.687h7.769v1.687H57.63v3.974a75.55 75.55 0 0 0-2.063.386v-4.36Zm-13.133-1.687h2.063v7.177c-.681 0-1.372-.08-2.063-.144v-7.033Zm-4.486 5.437-1.417-3.41-1.408 3.41h2.825Zm-6.154 2.951.413.52-.413-.52 3.732-8.388h2.037l3.983 8.908-.897-2.063c-2.422-.287-4.952-.709-7.626-1.175l-1.229 2.718Zm-8.074-4.36v-4.028h2.055v4.145l3.947-4.163h2.288l-3.75 3.992.78.987-1.938-.34-3.382-.593Zm-4.171-4.028h1.983v3.687c-.7-.098-1.382-.197-2.064-.269l.08-3.418Zm-8.433 3.337 1.444-3.337h2.037l3.983 8.908-2.61-5.777h-1.974l-.458-1.094-.466 1.13c-.664.027-1.337.08-2.019.17h.063Zm-8.97-1.794v2.1H4.1a2.14 2.14 0 0 0 1.157-.26.897.897 0 0 0 .395-.79.897.897 0 0 0-.395-.79 2.127 2.127 0 0 0-1.157-.26H2.144ZM0 40.217v-6.683h4.351a4.225 4.225 0 0 1 2.503.628 1.956 1.956 0 0 1 .897 1.687 2.126 2.126 0 0 1-1.059 1.893c-.96.26-1.946.574-2.969.95H2.045v.637c-.663.27-1.345.566-2.045.889Z" fill="#43D8EF"/><path d="M15.968 36.665h-1.973l.96 2.314h-2.826l.942-2.278c-.664 0-1.337.099-2.019.18l-2.485 5.561h2.108l.79-1.91h4.136l.79 1.91h2.161l-2.584-5.777Zm5.58.556c-.7-.099-1.381-.197-2.063-.269v5.49h2.046l.017-5.22Zm7.491 1.274-1.938-.34-3.444-.593v4.88h2.054V40.19l1.202-1.246 2.853 3.498h2.404l-3.13-3.947Zm11.546 1.875c-2.422-.287-4.952-.709-7.625-1.175l-1.445 3.238h2.108l.79-1.91h4.163l.789 1.91h2.162l-.942-2.063Zm3.911.34c-.681 0-1.372-.08-2.063-.143v1.866h6.53v-1.668h-4.485l.018-.054Zm13.134-1.524a75.55 75.55 0 0 0-2.063.386v2.861h2.063v-3.247Zm11.581-1.507a81.7 81.7 0 0 0-2.386.197l-.08.08c-.408.304-.911.45-1.418.413h-1.633v-.152l-2.063.305v3.92h2.063v-2.476h1.893l1.696 2.476h2.216l-2-2.861a2.961 2.961 0 0 0 1.354-1.104 2.69 2.69 0 0 0 .359-.798Zm8.478.17c-.7-.08-1.39-.134-2.09-.18l.565 1.346h-2.826l.583-1.426h-1.955l-2.198 4.916h2.117l.78-1.974h4.136l.79 1.911h2.162l-2.064-4.593Zm8.657 1.328-1.902-.323-.466 1.094-.547-1.318h-.234a55.387 55.387 0 0 0-2.135-.35l1.794 4.198h2.037l1.453-3.301Zm5.212.843-2.045-.314v2.781h6.899v-1.695h-4.854v-.772Zm13.026 2.467v-1.722h-4.485v-.225h-2.064v1.893l6.549.054ZM6.54 37.813c.474.139.894.42 1.202.808.295.402.446.892.43 1.39a2.064 2.064 0 0 1-.896 1.794c-.8.471-1.722.69-2.647.628H0v-2.216c.7-.322 1.382-.621 2.045-.897v1.561h2.44c.425.029.848-.065 1.22-.269a.898.898 0 0 0 .422-.825c0-.736-.547-1.104-1.641-1.104h-.79c1.023-.376 2.01-.69 2.97-.95l-.126.08Zm64.789 10.424c.477.03.949-.106 1.336-.385a1.507 1.507 0 0 0 0-2.162 2.063 2.063 0 0 0-1.336-.386H69.74v2.933h1.588Zm.107-4.485a4.657 4.657 0 0 1 1.947.377c.516.225.958.592 1.274 1.058.303.486.456 1.051.44 1.624a2.762 2.762 0 0 1-1.714 2.691 4.8 4.8 0 0 1-1.947.368h-1.695v2.324h-1.947V43.76l3.642-.01Zm-9.392 8.54a3.786 3.786 0 0 1-2.835-1.005 3.83 3.83 0 0 1-.978-2.843v-4.728h1.947v4.647c0 1.507.628 2.27 1.884 2.27a1.793 1.793 0 0 0 1.39-.548 2.566 2.566 0 0 0 .485-1.722v-4.647h1.928v4.728a3.866 3.866 0 0 1-1.004 2.852 3.794 3.794 0 0 1-2.817.996Zm-9.824-1.66a2.68 2.68 0 0 0 1.355-.35c.395-.22.72-.546.942-.941a3.042 3.042 0 0 0 0-2.8 2.458 2.458 0 0 0-.942-.95 2.78 2.78 0 0 0-2.691 0 2.404 2.404 0 0 0-.942.95 2.97 2.97 0 0 0 0 2.8c.217.4.544.73.942.95.407.23.868.349 1.336.342Zm0 1.66a4.907 4.907 0 0 1-2.359-.565 4.136 4.136 0 0 1-1.65-1.56 4.486 4.486 0 0 1 0-4.486 4.136 4.136 0 0 1 1.65-1.561 4.907 4.907 0 0 1 2.36-.566 4.853 4.853 0 0 1 2.359.566 4.297 4.297 0 0 1 0 7.59 4.852 4.852 0 0 1-2.36.582Zm-7.59-5.517a1.319 1.319 0 0 0-.457-1.085 2.063 2.063 0 0 0-1.336-.386h-1.57v2.942h1.597a2.01 2.01 0 0 0 1.336-.385 1.347 1.347 0 0 0 .43-1.086Zm0 5.383-1.569-2.36h-1.794v2.35h-1.974v-8.432h3.651a4.612 4.612 0 0 1 1.938.377c.52.22.963.588 1.274 1.058.306.486.462 1.05.449 1.624a2.763 2.763 0 0 1-1.74 2.691l1.892 2.692h-2.126Zm-8.97-4.351h1.794v3.418a5.079 5.079 0 0 1-1.57.807 6.36 6.36 0 0 1-1.794.278 4.88 4.88 0 0 1-2.36-.565 4.081 4.081 0 0 1-1.641-1.552 4.485 4.485 0 0 1 0-4.485c.394-.662.966-1.2 1.65-1.552a5.015 5.015 0 0 1 2.35-.584 5.175 5.175 0 0 1 2.01.377c.608.227 1.15.6 1.58 1.086l-1.248 1.148a2.916 2.916 0 0 0-2.18-.951 3.023 3.023 0 0 0-1.435.34 2.43 2.43 0 0 0-.978.952 2.997 2.997 0 0 0 0 2.808c.228.401.564.73.97.95.433.24.922.36 1.416.35a3.131 3.131 0 0 0 1.48-.394l-.044-2.431Z" fill="#2B457A"/></svg>