<svg width="30" height="43" fill="none" xmlns="http://www.w3.org/2000/svg"><path d="M25.052 35.531c1.62.39 2.918.873 3.777 1.417l-.535.845c.682.432.706.695.706.707 0 .012-.024.275-.706.707l.535.845c-.86.544-2.158 1.027-3.777 1.417l-.234-.972c-1.13.272-2.435.5-3.87.67l.117.993a49.94 49.94 0 0 1-4.039.304l-.036-1a55.4 55.4 0 0 1-3.98 0l-.036 1a49.942 49.942 0 0 1-4.039-.304l.118-.993a33.441 33.441 0 0 1-3.871-.67l-.234.972c-1.62-.39-2.918-.873-3.777-1.417l.534-.845C1.024 38.775 1 38.512 1 38.5c0-.012.024-.275.705-.707l-.534-.845c.86-.544 2.158-1.027 3.777-1.417l.234.972a33.64 33.64 0 0 1 3.87-.67l-.117-.993a49.99 49.99 0 0 1 4.039-.304l.036 1a55.4 55.4 0 0 1 3.98 0l.036-1a49.94 49.94 0 0 1 4.039.304l-.118.993c1.436.17 2.74.398 3.871.67l.234-.972Z" stroke="#0D97FD" stroke-width="2" stroke-dasharray="4 4"/><path fill-rule="evenodd" clip-rule="evenodd" d="M2 13.509C2 26.004 15.009 38.5 15.009 38.5s13.009-12.495 13.009-24.991C28.018 6.319 22.198.5 15.009.5 7.819.5 2 6.32 2 13.509Zm13.01 6.932a6.077 6.077 0 1 0 0-12.153 6.077 6.077 0 0 0 0 12.153Z" fill="#0E3451"/></svg>